<svg version="1.1" xmlns="http://www.w3.org/2000/svg" xmlns:xlink="http://www.w3.org/1999/xlink" x="0px" y="0px"
     width="179.25px" height="165.82px" viewBox="0 0 179.25 165.82" style="enable-background:new 0 0 179.25 165.82;"
     xml:space="preserve">
<style type="text/css">
	.st0{fill:#FFFFFF;}
</style>
    <defs>
</defs>
    <g>
	<path class="st0" d="M127.79,155.86h0.84c-8.85-1.11-13.57-4.65-16.08-8.25H66.72c-2.51,3.6-7.23,7.14-16.1,8.25h0.55
		c-2.76,0-4.98,2.24-4.98,4.97c0,2.74,2.24,5,4.98,5h76.61c2.76,0,4.98-2.26,4.98-5C132.76,158.1,130.54,155.86,127.79,155.86z"/>
        <path class="st0" d="M166.23,0H13.02C5.83,0,0,5.81,0,13.02v96.11c0,0.05,0,0.12,0,0.14v17.43c0,0.07,0,0.15,0,0.22v0.97
		c0,0.07,0,0.14,0,0.22v0.25c0.22,6.14,5.28,11.03,11.48,11.03h52.88h5.27h39.97h3.24h54.92c6.2,0,11.21-4.9,11.46-11.03l0.04-21.52
		V13.02C179.25,5.81,173.43,0,166.23,0z M100.03,126.88c0,1.59-1.29,2.89-2.88,2.89H82.07c-1.59,0-2.88-1.3-2.88-2.89v-1.97
		c0-1.6,1.29-2.9,2.88-2.9h15.08c1.59,0,2.88,1.3,2.88,2.9V126.88z M168.49,109.13c0,1.25-1,2.29-2.26,2.29H13.02
		c-1.25,0-2.28-1.04-2.28-2.29V13.02c0-1.25,1.03-2.29,2.28-2.29H166.2c1.25,0,2.29,1.04,2.29,2.29V109.13z"/>
        <path class="st0" d="M65.57,48.41c1.04,0,2.04,0.14,3.01,0.42c0.97,0.28,2.01,0.75,3.11,1.41c0.5,0.31,0.94,0.54,1.32,0.68
		c0.38,0.14,0.8,0.21,1.27,0.21c0.78,0,1.45-0.34,2-1.01c0.55-0.67,0.82-1.5,0.82-2.47c0-0.69-0.12-1.25-0.35-1.69
		c-0.24-0.44-0.62-0.85-1.15-1.22c-3.01-2.1-6.51-3.15-10.49-3.15c-3.32,0-6.23,0.69-8.73,2.07c-2.49,1.38-4.42,3.36-5.79,5.93
		c-1.36,2.57-2.05,5.57-2.05,8.99c0,3.45,0.68,6.46,2.05,9.03c1.36,2.57,3.29,4.55,5.79,5.93c2.49,1.38,5.4,2.07,8.73,2.07
		c3.98,0,7.48-1.05,10.49-3.15c0.53-0.38,0.92-0.79,1.15-1.25c0.24-0.45,0.35-1.01,0.35-1.67c0-0.97-0.27-1.8-0.82-2.47
		c-0.55-0.67-1.22-1.01-2-1.01c-0.44,0-0.82,0.06-1.13,0.19c-0.31,0.13-0.8,0.36-1.46,0.71c-1.38,0.63-2.51,1.09-3.39,1.39
		c-0.88,0.3-1.79,0.45-2.73,0.45c-2.79,0-4.87-0.84-6.23-2.52c-1.36-1.68-2.05-4.24-2.05-7.69c0-3.42,0.68-5.97,2.05-7.65
		C60.7,49.25,62.78,48.41,65.57,48.41z"/>
        <path class="st0" d="M101.1,58.86h-5.93v-5.93c0-0.78-0.27-1.44-0.8-1.98c-0.53-0.53-1.19-0.8-1.98-0.8c-0.78,0-1.44,0.27-1.98,0.8
		c-0.53,0.53-0.8,1.19-0.8,1.98v5.93h-5.93c-0.78,0-1.44,0.27-1.98,0.8c-0.53,0.53-0.8,1.19-0.8,1.98c0,0.78,0.27,1.45,0.8,2
		c0.53,0.55,1.19,0.82,1.98,0.82h5.93v5.88c0,0.78,0.27,1.44,0.8,1.98c0.53,0.53,1.19,0.8,1.98,0.8c0.82,0,1.48-0.27,2-0.8
		c0.52-0.53,0.78-1.19,0.78-1.98v-5.88h5.93c0.78,0,1.44-0.27,1.98-0.82c0.53-0.55,0.8-1.22,0.8-2c0-0.78-0.27-1.44-0.8-1.98
		C102.54,59.13,101.88,58.86,101.1,58.86z"/>
        <path class="st0" d="M129.33,58.86h-5.93v-5.93c0-0.78-0.27-1.44-0.8-1.98c-0.53-0.53-1.19-0.8-1.98-0.8
		c-0.78,0-1.44,0.27-1.98,0.8c-0.53,0.53-0.8,1.19-0.8,1.98v5.93h-5.93c-0.78,0-1.44,0.27-1.98,0.8c-0.53,0.53-0.8,1.19-0.8,1.98
		c0,0.78,0.27,1.45,0.8,2c0.53,0.55,1.19,0.82,1.98,0.82h5.93v5.88c0,0.78,0.27,1.44,0.8,1.98c0.53,0.53,1.19,0.8,1.98,0.8
		c0.82,0,1.48-0.27,2-0.8c0.52-0.53,0.78-1.19,0.78-1.98v-5.88h5.93c0.78,0,1.44-0.27,1.98-0.82c0.53-0.55,0.8-1.22,0.8-2
		c0-0.78-0.27-1.44-0.8-1.98C130.77,59.13,130.11,58.86,129.33,58.86z"/>
</g>
</svg>
