<svg version="1.1" xmlns="http://www.w3.org/2000/svg" xmlns:xlink="http://www.w3.org/1999/xlink" x="0px" y="0px" width="193.1px"
     height="171px" viewBox="0 0 193.1 171" style="enable-background:new 0 0 193.1 171;" xml:space="preserve">
<style type="text/css">
	.st0{fill:#FFFFFF;}
</style>
    <defs>
</defs>
    <g>
	<g>
		<g>
			<g>
				<path class="st0" d="M25.54,0h146.58v109.94H25.54V0L25.54,0z M37.74,12.21v85.5h122.17v-85.5H37.74z"/>
                <path class="st0" d="M0,171c32.14,0,64.33,0,96.51,0c32.16,0,64.38,0,96.59,0c-5.45-10.44-10.31-19.77-14.68-28.14
					c-3.94-7.55-7.54-14.44-10.81-20.72c-23.71,0-47.42,0-71.1,0c-23.68,0-47.37,0-71.03,0c-3.28,6.28-6.87,13.15-10.82,20.72
					C10.3,151.26,5.44,160.59,0,171z"/>
			</g>
		</g>
	</g>
        <path class="st0" d="M82,81.72H71.35c-0.45,0-0.82-0.37-0.82-0.82V66.16c0-0.45,0.37-0.82,0.82-0.82H82c0.45,0,0.82,0.37,0.82,0.82
		V80.9C82.82,81.35,82.45,81.72,82,81.72z M101.66,80.9V54.69c0-0.45-0.37-0.82-0.82-0.82H90.19c-0.45,0-0.82,0.37-0.82,0.82V80.9
		c0,0.45,0.37,0.82,0.82,0.82h10.65C101.29,81.72,101.66,81.35,101.66,80.9z M122.38,42.81l-8.13-14.09c-0.39-0.68-1.03-0.68-1.42,0
		l-8.13,14.09c-0.4,0.68-0.07,1.24,0.71,1.24h2.81V80.9c0,0.45,0.37,0.82,0.82,0.82h9.02c0.44,0,0.82-0.37,0.82-0.82V44.04h2.81
		C122.46,44.04,122.77,43.48,122.38,42.81z"/>
</g>
</svg>
