<svg version="1.1" xmlns="http://www.w3.org/2000/svg" xmlns:xlink="http://www.w3.org/1999/xlink" x="0px" y="0px"
     width="116.35px" height="67.44px" viewBox="0 0 116.35 67.44" style="enable-background:new 0 0 116.35 67.44;"
     xml:space="preserve">
<style type="text/css">
	.st0{fill:#FFFFFF;}
</style>
    <defs>
</defs>
    <g>
	<path class="st0" d="M58.17,45.35L23.47,34.67v10.51v7.33c0,8.25,15.54,14.93,34.72,14.93c19.17,0,34.72-6.69,34.72-14.93
		c0-0.06-0.02-0.13-0.02-0.19V34.67L58.17,45.35z"/>
        <path class="st0" d="M0,22.38l12.4,4.43l1.06-2.26l4.55-0.39l0.65,0.68l-3.91,0.93l-0.57,1.69c0,0-8.83,18.46-7.53,27.49
		c0,0,5.51,3.29,11.02,0l1.46-24.69V28.2l8.2-1.85l-0.58,1.43l-6.12,1.99l2.83,1.01l34.71,10.68l34.71-10.68l23.47-8.39L58.17,0
		L0,22.38z"/>
</g>
</svg>
