<svg version="1.1" xmlns="http://www.w3.org/2000/svg" xmlns:xlink="http://www.w3.org/1999/xlink" x="0px" y="0px"
     width="165.66px" height="165.65px" viewBox="0 0 165.66 165.65" style="enable-background:new 0 0 165.66 165.65;"
     xml:space="preserve">
<style type="text/css">
	.st0{fill:#F1F1F1;}
</style>
    <defs>
</defs>
    <g>
	<g>
		<path class="st0" d="M69.39,0c38.33,0,69.4,13.83,69.4,30.87c0,17.07-31.07,30.88-69.4,30.88C31.07,61.76,0,47.95,0,30.87
			C0,13.83,31.07,0,69.39,0z"/>
        <path class="st0" d="M85.47,144.32c-4.87-1.24-8.5-5.21-9.42-10.05c-2.19,0.09-4.41,0.13-6.66,0.13
			C31.06,134.41,0,120.59,0,103.52c0,7.13,0,11.9,0,23.62c0,17.07,31.06,30.88,69.39,30.88c5.52,0,10.85-0.31,16-0.84
			C83.16,153.22,83.06,148.33,85.47,144.32z"/>
        <path class="st0" d="M69.39,125.94c2.17,0,4.3-0.04,6.42-0.14v-3.54c0-5.92,4.06-11.03,9.72-12.43c-1.49-2.54-2.03-5.4-1.67-8.15
			c-4.67,0.42-9.49,0.67-14.46,0.67C31.06,102.34,0,88.53,0,71.45c0,7.11,0,11.88,0,23.6C0.01,112.13,31.06,125.94,69.39,125.94z"/>
        <path class="st0" d="M69.39,93.85c6.86,0,13.47-0.45,19.73-1.27l5.18-5.19c2.48-2.5,5.77-3.77,9.08-3.77
			c2.23,0,4.46,0.58,6.48,1.76c1.46-5.59,6.53-9.59,12.41-9.59h9.62c0.17,0,0.35,0.05,0.51,0.05c4.05-3.92,6.37-8.27,6.37-12.88
			c0-6.26,0-12.79,0-23.62c0,17.06-31.06,30.88-69.39,30.88c-38.33,0-69.38-13.82-69.38-30.88c0,7.13,0,11.9,0,23.62
			C0.01,80.04,31.06,93.85,69.39,93.85z"/>
	</g>
        <g>
		<path class="st0" d="M165.66,131.89v-9.63l-11.45-1.87c-0.67-2.72-1.74-5.27-3.14-7.62l6.67-9.51l-6.81-6.8l-9.39,6.75
			c-2.35-1.4-4.91-2.49-7.65-3.16l-1.99-11.42h-9.62L120.41,100c-2.73,0.67-5.32,1.74-7.66,3.14l-9.37-6.68l-6.8,6.8l6.59,9.42
			c-1.44,2.36-2.52,4.94-3.2,7.69l-11.31,1.89v9.63l11.31,2.01c0.67,2.74,1.75,5.32,3.19,7.69l-6.67,9.33l6.81,6.83l9.43-6.63
			c2.36,1.43,4.94,2.5,7.66,3.17l1.9,11.36h9.62l2.02-11.39c2.72-0.69,5.28-1.78,7.62-3.21l9.5,6.69l6.8-6.83l-6.78-9.43
			c1.4-2.34,2.47-4.88,3.14-7.59L165.66,131.89z M127.16,140.58c-7.41,0-13.43-6.02-13.43-13.44c0-7.4,6.02-13.42,13.43-13.42
			c7.41,0,13.43,6.02,13.43,13.42C140.59,134.56,134.57,140.58,127.16,140.58z"/>
	</g>
</g>
</svg>
