<svg version="1.1" xmlns="http://www.w3.org/2000/svg" xmlns:xlink="http://www.w3.org/1999/xlink" x="0px" y="0px"
     width="36.43px"
     height="32.35px" viewBox="0 0 36.43 32.35" style="enable-background:new 0 0 36.43 32.35;" xml:space="preserve">
<style type="text/css">
	.st0{fill:#FFFFFF;}
</style>
    <defs>
</defs>
    <g>
	<g>
		<g>
			<rect x="5.25" y="16.3" class="st0" width="3.22" height="3.22"/>
            <rect x="5.25" y="21.4" class="st0" width="3.22" height="3.22"/>
            <rect x="10.65" y="11.2" class="st0" width="3.22" height="3.22"/>
            <rect x="10.65" y="16.3" class="st0" width="3.22" height="3.22"/>
            <rect x="10.65" y="21.4" class="st0" width="3.22" height="3.22"/>
            <path class="st0" d="M29.99,11.67v-9.4c0-1.25-1.02-2.27-2.27-2.27H2.27C1.02,0,0,1.02,0,2.27v25.45c0,1.25,1.02,2.27,2.27,2.27
				h16.61c1.85,1.48,4.19,2.37,6.74,2.37c5.97,0,10.81-4.84,10.81-10.81C36.43,17.13,33.78,13.34,29.99,11.67z M9.82,2.23h10.33V4.9
				H9.82V2.23z M2.78,7.45H27.2v3.42c-0.52-0.08-1.04-0.13-1.58-0.13c-2.38,0-4.57,0.78-6.36,2.08V11.2h-3.22v3.22h1.47
				c-1.67,1.9-2.69,4.39-2.69,7.12c0,1.95,0.52,3.78,1.43,5.35H2.78V7.45z M24.63,12.74c0-0.55,0.45-0.99,0.99-0.99
				c0.55,0,0.99,0.44,0.99,0.99c0,0.55-0.44,0.99-0.99,0.99C25.08,13.73,24.63,13.29,24.63,12.74z M17.81,21.55
				c0,0.55-0.44,0.99-0.99,0.99c-0.55,0-0.99-0.44-0.99-0.99c0-0.55,0.44-0.99,0.99-0.99S17.81,21,17.81,21.55z M25.62,31.34
				c-0.54,0-0.99-0.44-0.99-0.99c0-0.55,0.45-1,0.99-1c0.55,0,0.99,0.44,0.99,1C26.61,30.9,26.17,31.34,25.62,31.34z M31.62,17.08
				l-4.15,4.14c0.03,0.13,0.08,0.24,0.08,0.38c0,1.07-0.87,1.95-1.95,1.95c-1.04,0-1.87-0.82-1.92-1.85l-4.41-3.42
				c-0.38-0.3-0.47-0.82-0.19-1.18c0.28-0.36,0.81-0.4,1.19-0.1l4.03,3.14c0.35-0.33,0.81-0.53,1.32-0.53
				c0.34,0,0.64,0.11,0.92,0.26l3.93-3.94c0.37-0.37,0.92-0.4,1.23-0.09C32.02,16.16,31.98,16.71,31.62,17.08z M34.42,22.54
				c-0.55,0-0.99-0.45-0.99-1c0-0.55,0.44-0.99,0.99-0.99c0.55,0,0.99,0.44,0.99,0.99C35.42,22.09,34.97,22.54,34.42,22.54z"/>
		</g>
	</g>
</g>
</svg>
