<svg version="1.1" xmlns="http://www.w3.org/2000/svg" xmlns:xlink="http://www.w3.org/1999/xlink" x="0px" y="0px"
     width="155.35px" height="178.47px" viewBox="0 0 155.35 178.47" style="enable-background:new 0 0 155.35 178.47;"
     xml:space="preserve">
<style type="text/css">
	.st0{fill:#FFFFFF;}
</style>
    <defs>
</defs>
    <g>
	<path class="st0" d="M77.7,0C39.52,0,7.72,27.64,1.23,63.97C0.42,68.43,0,73.02,0,77.7c0,42.85,22.79,76.46,66.74,89.12v1.02
		c0,8.17,8.84,13.27,15.91,9.19L115.61,158c7.07-4.08,7.07-14.29,0-18.37L82.65,120.6c-7.07-4.08-15.91,1.02-15.91,9.19
		c-35.45,0-54.36-28.75-54.36-56.03c0.2-3.33,0.64-6.62,1.32-9.79c1.2-5.56,3.09-10.86,5.64-15.78c8.09,3.6,18.85,6.39,31.19,8.06
		c-0.74,6.99-1.08,14.22-1.08,21.46c0,7.21,0.34,14.43,1.08,21.42c-7.5,1.01-14.42,2.46-20.53,4.25c0.38,0.43,0.7,0.88,1.04,1.32
		c1.08,1.38,2.08,2.69,3.13,3.7l0.25,0.21l0.22,0.28c0.78,0.88,1.73,1.74,2.79,2.62c4.39-1.05,9.19-1.96,14.29-2.65
		c0.68,4.37,1.49,8.56,2.45,12.5h0.03c1.59,0.49,2.96,0.91,3.94,0.96h0.3c0,0,0.7,0.07,0.93,0.1v-11.4c0-8.5,6.31-8.44,9.9-6.38
		l4.74,2.47c1.54-0.02,3.09-0.05,4.63-0.05c5.25,0,10.4,0.21,15.3,0.58c-0.57,3.55-1.2,6.86-1.92,9.9l8.83,5.1
		c1.09-4.4,2.05-9.12,2.79-14.03c10.89,1.35,20.4,3.59,27.71,6.44c-4.34,6.21-9.71,11.62-15.89,16.02l11.62,6.01
		c17.34-14.26,28.27-35.24,28.27-59.38C155.35,34.84,120.52,0,77.7,0z M80.96,134.4c3.05,0,5.52,2.47,5.52,5.52
		c0,3.05-2.47,5.52-5.52,5.52s-5.52-2.47-5.52-5.52C75.45,136.87,77.92,134.4,80.96,134.4z M80.96,153.12
		c3.05,0,5.52,2.47,5.52,5.52c0,3.05-2.47,5.52-5.52,5.52s-5.52-2.47-5.52-5.52C75.45,155.59,77.92,153.12,80.96,153.12z
		 M75.34,12.31c0.78-0.02,1.57-0.05,2.36-0.05c0.79,0,1.57,0.03,2.35,0.05c4.65,3.16,10.71,15.15,13.9,35.42
		c-10.91,0.82-22.17,0.75-32.51-0.14C64.65,27.39,70.68,15.45,75.34,12.31z M51.74,46.51c-10.73-1.47-20.21-3.85-27.27-6.82
		c8.83-12.34,21.8-21.48,36.9-25.38C56.92,22.41,53.72,33.76,51.74,46.51z M95.15,97.9c-5.29-0.45-10.83-0.64-16.5-0.64
		c-6.33,0-12.53,0.25-18.43,0.79c-0.61-6.18-0.96-12.97-0.96-20.35c0-7.41,0.35-14.2,0.96-20.37c5.93,0.54,12.1,0.78,18.43,0.78
		c5.51,0,11.06-0.23,16.5-0.64c0.61,6.16,0.96,12.9,0.96,20.24C96.11,85.02,95.76,91.77,95.15,97.9z M94.02,14.32
		c15.32,3.95,28.48,13.34,37.32,26c-7.31,2.86-16.82,5.1-27.68,6.44C101.7,33.91,98.46,22.46,94.02,14.32z M104.86,98.87
		c0.71-6.89,1.05-14.05,1.05-21.17c0-7.14-0.35-14.3-1.05-21.21c12.35-1.55,23.22-4.2,31.53-7.68c4.28,8.71,6.72,18.51,6.72,28.89
		c0,10.34-2.4,20.12-6.7,28.82C128.1,103.07,117.21,100.42,104.86,98.87z"/>
</g>
</svg>
